<?xml version="1.0" encoding="utf-8"?>
<!-- Generator: Adobe Illustrator 18.0.0, SVG Export Plug-In . SVG Version: 6.00 Build 0)  -->
<!DOCTYPE svg PUBLIC "-//W3C//DTD SVG 1.1//EN" "http://www.w3.org/Graphics/SVG/1.1/DTD/svg11.dtd">
<svg version="1.1" id="Layer_1" xmlns:sketch="http://www.bohemiancoding.com/sketch/ns"
	 xmlns="http://www.w3.org/2000/svg" xmlns:xlink="http://www.w3.org/1999/xlink" x="0px" y="0px" viewBox="0 0 612 792"
	 enable-background="new 0 0 612 792" xml:space="preserve">
<title></title>
<g id="Icons_with_numbers">
	<g id="Group" transform="translate(-768.000000, -432.000000)">
		<g>
			<g>
				<path fill="#FFFFFF" d="M1020.4,826.1c0,7.6-7.7,15.3-15.3,15.3h-22.9c-11.5,0-11.5,3.8-7.7,11.5l91.8,110.9
					c3.8,7.7,15.3,7.7,19.1,0l91.8-110.9c3.8-7.6,0-11.5-7.7-11.5h-22.9c-7.7,0-15.3-7.6-15.3-15.3V665.4c0-7.6-7.7-15.3-15.3-15.3
					h-80.3c-7.7,0-15.3,7.6-15.3,15.3V826.1z"/>
			</g>
			<g>
				<path fill="#FFFFFF" d="M1227,916c-7.7,0-15.3,7.7-15.3,15.3V981c0,7.7-7.7,15.3-15.3,15.3h-241c-7.7,0-15.3-7.7-15.3-15.3
					v-49.7c0-7.7-7.7-15.3-15.3-15.3h-22.9c-7.7,0-15.3,7.7-15.3,15.3V981c0,7.7,0,23,0,30.6v23c0,7.7,7.7,15.3,15.3,15.3h351.9
					c7.7,0,15.3-7.7,15.3-15.3v-23c0-7.7,0-23,0-30.6v-49.7c0-7.7-7.7-15.3-15.3-15.3H1227z"/>
			</g>
		</g>
	</g>
</g>
</svg>
