<?xml version="1.0" encoding="utf-8"?>
<!-- Generator: Adobe Illustrator 18.0.0, SVG Export Plug-In . SVG Version: 6.00 Build 0)  -->
<!DOCTYPE svg PUBLIC "-//W3C//DTD SVG 1.1//EN" "http://www.w3.org/Graphics/SVG/1.1/DTD/svg11.dtd">
<svg version="1.1" id="Layer_1" xmlns="http://www.w3.org/2000/svg" xmlns:xlink="http://www.w3.org/1999/xlink" x="0px" y="0px"
	 viewBox="0 338 612 128" enable-background="new 0 338 612 128" xml:space="preserve">
<g>
	<path fill="#666666" d="M89.5,342.7c2.1,0,2.6,1.1,2.6,3.2v12.7c0,2.6-1.6,4.2-4.8,4.2H79c-3.2,0-5.8,1.6-7.4,4.8
		c-0.5,1.1-1.1,2.1-1.1,3.7c0,2.6,1.6,6.9,4.8,13.8l14.8,32.3c1.6,3.7,2.6,7.4,2.6,10.6c0,4.2-1.1,7.9-3.7,11.1
		c-2.1,3.2-5.8,5.8-10.6,6.9c-1.6,0.5-3.7,1.1-5.3,1.6c-1.6,0.5-3.7,1.1-5.3,1.6c-1.6,0.5-2.1,1.1-2.6,1.1c-1.6,1.1-2.1,2.1-3.2,3.2
		c-1.6,2.6-3.2,3.7-4.8,3.7c-0.5,0-1.6-0.5-2.1-1.1c-0.5-0.5-1.1-1.6-1.1-2.6v-14.3c0-1.1,0.5-1.6,1.1-2.6c1.6-0.5,2.6-0.5,3.2-0.5
		h6.9c5.8,0,9-1.1,10.6-3.7c0.5-1.1,1.1-2.1,1.1-3.2c0-2.1-1.6-6.4-4.2-12.7l-13.8-29.7c-2.1-4.2-2.6-7.9-2.6-11.7
		c0-9.5,4.8-16.4,14.3-21.2c1.6-0.5,3.2-1.1,4.8-1.6c1.6-0.5,3.7-1.1,5.8-2.1c1.6-0.5,2.6-1.6,3.7-3.2c0.5-0.5,0.5-1.1,1.6-1.6
		c0.5-0.5,1.1-1.1,1.6-2.1C88.5,342.7,89,342.7,89.5,342.7z"/>
	<path fill="#666666" d="M156.3,375.1c2.1,0,4.8,0.5,6.9,1.6c3.2,1.6,4.8,4.2,5.3,7.9l7.4,49.8c0.5,2.6,1.6,4.2,3.7,4.2
		c2.6,0,3.7,1.1,3.7,3.7c0,2.1-1.1,3.7-3.7,3.7h-19.1c-2.6,0-3.7-1.1-3.7-3.7s1.1-3.7,3.7-3.7c2.6-0.5,3.7-2.1,3.2-4.8l-6.4-44.5
		c-0.5-3.2-2.1-4.8-5.8-4.8c-1.6,0-3.2,0.5-4.2,1.6c-1.1,1.1-1.6,2.6-1.6,4.2v44.5c0,2.6,1.1,3.7,3.7,3.7s3.7,1.1,3.7,3.7
		c0,2.1-1.1,3.7-3.7,3.7h-18c-2.1,0-3.7-1.1-3.7-3.7c0-2.1,1.1-3.2,3.7-3.7c1.6-0.5,2.6-1.6,2.6-3.7V392c0-2.1-0.5-4.2-2.1-5.3
		c-1.6-1.6-3.2-2.1-5.3-2.1s-3.7,0.5-5.3,2.1c-1.6,1.6-2.1,3.2-2.1,5.3v42.9c0,2.6,1.1,3.7,2.6,3.7c2.6,0,3.7,1.1,3.7,3.7
		c0,2.1-1.1,3.7-3.7,3.7h-17.5c-2.6,0-3.7-1.1-3.7-3.7c0-2.1,1.1-3.2,3.7-3.7c2.1,0,3.2-1.6,3.2-3.7v-41.9l-1.6,1.1
		c-1.1,1.1-1.6,1.6-2.6,1.6c-0.5,0-1.1,0-2.1-0.5c-1.6-1.1-1.6-2.6-0.5-4.2l12.2-15.4c1.1-1.1,1.6-1.1,2.6-1.1
		c2.1,0,3.2,1.1,3.2,3.2v1.6c4.2-2.6,7.9-4.2,11.1-4.2c4.2,0,8.5,2.1,11.7,6.9C146.8,377.2,151.5,375.1,156.3,375.1z"/>
	<path fill="#666666" d="M254.3,385.1c7.4,7.4,11.1,15.9,11.1,26.5c0,10.1-3.7,19.1-11.1,26c-7.4,7.4-15.9,10.6-26.5,10.6
		c-10.6,0-19.1-3.7-26.5-10.6c-7.4-7.4-10.6-15.9-10.6-26s3.7-19.1,11.1-26.5c7.4-7.4,15.9-11.1,26.5-11.1
		C239,374,246.9,378.2,254.3,385.1z M206.6,420.6c1.6,6.4,4.8,11.7,9,14.8c3.7,2.6,8.5,4.2,13.2,4.2c2.6,0,5.3-0.5,7.4-1.1
		c7.9-3.2,12.7-9,14.3-17.5c0-1.1,0.5-1.6,0.5-2.6s0-2.1,0-3.2c0-11.1-2.6-19.6-8.5-25.4c-4.2-4.2-9.5-5.8-15.9-5.8
		c-1.6,0-3.2,0-5.3,0.5c-10.1,3.2-15.9,10.1-16.4,20.7C205.1,410.6,205.1,415.3,206.6,420.6z"/>
	<path fill="#666666" d="M296.2,438.7c2.6,0,3.7,1.1,3.7,3.7c0,2.1-1.1,3.7-3.7,3.7h-19.1c-2.6,0-3.7-1.1-3.7-3.7
		c0-2.6,1.1-3.7,3.7-3.7s3.7-1.1,3.7-3.7v-41.9l-1.1,1.1c-1.6,1.6-2.6,1.6-4.2,0.5c-1.1-0.5-1.6-1.6-1.6-2.6c0-0.5,0-1.1,0.5-1.6
		l12.2-15.4c0.5-1.1,1.6-1.1,2.6-1.1c2.1,0,3.2,1.1,3.2,3.2v57.8C292.5,437.6,294.1,438.7,296.2,438.7z M292,350.7
		c1.6,1.6,2.6,3.7,2.6,6.4c0,2.1-1.1,4.2-2.6,5.8c-1.6,1.6-3.7,2.6-5.8,2.6c-2.6,0-4.8-1.1-6.4-2.6c-1.6-1.6-2.6-3.7-2.6-5.8
		c0-2.6,1.1-4.8,2.6-6.4c1.6-1.6,3.7-2.6,6.4-2.6C288.2,348.6,290.4,349.1,292,350.7z"/>
	<path fill="#666666" d="M307.9,394.1c0-6.4,3.2-11.1,9.5-13.2c5.8-2.1,9.5-4.8,11.1-6.9c0.5-1.6,1.6-2.1,2.1-2.6c0.5,0,1.1,0,1.1,0
		c1.6,0,2.1,1.1,2.1,2.6v9c0,2.1-1.1,3.2-3.2,3.2h-5.3c-4.2,0-6.4,2.1-6.4,5.8c0,1.1,0.5,2.6,1.1,4.8l13.2,35
		c1.1,2.1,1.1,4.2,1.1,6.4c0,6.4-3.2,11.1-9.5,13.2c-6.9,1.6-11.1,3.7-12.2,5.8c-1.1,1.6-1.6,2.6-2.1,2.6c-0.5,0-1.1,0.5-1.1,0.5
		c-1.6,0-2.1-1.1-2.1-2.6v-9c0-2.1,1.1-2.6,3.2-2.6h6.4c4.2,0,6.4-2.1,6.4-5.8c0-1.1-0.5-2.6-1.1-4.2l-13.2-35
		C307.9,398.9,307.9,396.3,307.9,394.1z"/>
	<path fill="#666666" d="M366.7,438.7c2.6,0,3.7,1.1,3.7,3.7c0,2.1-1.1,3.7-3.7,3.7h-20.1c-2.6,0-3.7-1.1-3.7-3.7
		c0-2.6,1.1-3.7,3.7-3.7s3.7-1.1,3.7-3.7v-69.4l-1.1,1.1c-0.5,1.1-1.6,1.6-2.6,1.6c-0.5,0-1.6,0-2.1-0.5c-1.6-1.6-2.1-2.6-0.5-4.8
		l12.7-16.4c0.5-1.1,1.6-1.1,2.6-1.1c2.6,0,3.7,1.1,3.7,3.7v30.2c4.2-2.6,7.9-4.2,11.1-4.2c2.1,0,4.2,0.5,6.4,1.6
		c2.6,1.6,4.8,4.2,5.3,7.9l7.4,49.8c0.5,2.6,1.6,4.2,4.2,4.2c2.1,0,3.7,1.1,3.7,3.7c0,2.1-1.1,3.7-3.7,3.7h-19.1
		c-2.6,0-3.7-1.1-3.7-3.7s1.1-3.7,3.7-3.7c2.6-0.5,3.7-2.1,3.2-4.8l-6.4-44.5c-0.5-3.2-2.1-4.8-5.8-4.8c-1.6,0-3.2,0.5-4.2,1.6
		c-1.1,1.1-1.6,2.6-1.6,4.2v44.5C363,437.6,364,438.7,366.7,438.7z"/>
	<path fill="#666666" d="M448.8,438.7c3.7,0,9.5,0,16.4-1.1c2.1,0,4.2-1.1,7.4-2.1c3.2-1.1,4.8-1.6,4.8-1.6c1.6,0,2.6,1.1,2.6,2.6
		v6.9c0,1.6-0.5,2.6-2.1,2.6c0,0-1.1,0-2.6,0s-3.7,0-6.4,0.5l-15.9,1.1c-2.6,0-5.3,0.5-7.4,0.5c-13.8,0-23.8-4.8-30.7-14.3
		c-4.8-6.4-6.9-13.8-6.9-22.3c0-4.8,0.5-9,2.1-13.2c2.6-6.4,6.4-11.7,11.7-15.9c4.8-3.7,10.1-6.4,15.9-7.4c1.6-0.5,3.7-0.5,5.8-0.5
		c6.4,0,12.2,1.6,17.5,4.8c6.4,3.7,11.7,9.5,14.8,17.5c1.1,2.6,0.5,4.8-1.1,6.4c-1.1,1.1-3.2,1.6-6.4,1.6h-46.6
		c0,1.1-0.5,2.1-0.5,3.2s0,2.1,0,3.2c0,5.8,1.6,10.6,4.2,14.8C431.3,433.9,438.7,438.1,448.8,438.7z M432.4,387.3
		c-3.7,2.1-5.8,4.8-6.9,7.4H461c-1.6-3.2-4.2-5.8-8.5-7.9c-3.2-1.6-6.4-2.6-9.5-2.6C439.3,384.1,435.6,385.1,432.4,387.3z"/>
	<path fill="#666666" d="M489.1,442.4c0-2.6,1.1-3.7,3.7-3.7c2.6,0,3.7-1.1,3.7-3.7v-69.4l-1.1,1.1c-0.5,1.1-1.6,1.6-2.6,1.6
		c-0.5,0-1.6,0-2.1-0.5c-1.6-1.6-2.1-2.6-0.5-4.8l12.7-16.4c0.5-1.1,1.6-1.1,2.6-1.1c2.6,0,3.7,1.1,3.7,3.7v86.4
		c0,2.6,1.1,3.7,3.7,3.7c2.6,0,3.7,1.1,3.7,3.7c0,2.1-1.1,3.7-3.7,3.7h-20.1C490.1,446.1,489.1,445,489.1,442.4z"/>
	<path fill="#666666" d="M564.8,438.7c3.7,0,9.5,0,16.4-1.1c2.1,0,4.2-1.1,7.4-2.1c3.2-1.1,4.8-1.6,4.8-1.6c1.6,0,2.6,1.1,2.6,2.6
		v6.9c0,1.6-0.5,2.6-2.1,2.6c0,0-1.1,0-2.6,0c-1.6,0-3.7,0-6.4,0.5l-15.9,1.1c-2.6,0-5.3,0.5-7.4,0.5c-13.8,0-23.8-4.8-30.7-14.3
		c-4.8-6.4-6.9-13.8-6.9-22.3c0-4.8,0.5-9,2.1-13.2c2.6-6.4,6.4-11.7,11.7-15.9c4.8-3.7,10.1-6.4,15.9-7.4c1.6-0.5,3.7-0.5,5.8-0.5
		c6.4,0,12.2,1.6,17.5,4.8c6.4,3.7,11.7,9.5,14.8,17.5c1.1,2.6,0.5,4.8-1.1,6.4c-1.1,1.1-3.2,1.6-6.4,1.6h-46.6
		c0,1.1-0.5,2.1-0.5,3.2c0,1.1,0,2.1,0,3.2c0,5.8,1.6,10.6,4.2,14.8C546.8,433.9,554.8,438.1,564.8,438.7z M547.9,387.3
		c-3.7,2.1-5.8,4.8-6.9,7.4h35.5c-1.6-3.2-4.2-5.8-8.5-7.9c-3.2-1.6-6.4-2.6-9.5-2.6C555.3,384.1,551.6,385.1,547.9,387.3z"/>
</g>
<g>
	<path fill="#666666" d="M34.4,372.4c1.6,1.6,2.6,3.7,2.6,5.8c0,2.1-1.1,4.2-2.6,5.8s-3.7,2.1-5.8,2.1s-4.2-0.5-5.8-2.1
		c-1.6-1.6-2.6-3.7-2.6-5.8c0-2.1,1.1-4.2,2.6-5.8c1.6-1.6,3.7-2.1,5.8-2.1C30.7,369.8,32.9,370.8,34.4,372.4z M34.4,413.2
		c1.6,1.6,2.6,3.7,2.6,5.8s-1.1,4.2-2.6,5.8c-1.6,1.6-3.7,2.1-5.8,2.1s-4.2-0.5-5.8-2.1c-1.6-1.6-2.6-3.2-2.6-5.8s1.1-4.2,2.6-5.8
		c1.6-1.6,3.7-2.1,5.8-2.1S32.9,411.6,34.4,413.2z"/>
</g>
</svg>
