<?xml version="1.0" encoding="utf-8"?>
<!-- Generator: Adobe Illustrator 18.0.0, SVG Export Plug-In . SVG Version: 6.00 Build 0)  -->
<!DOCTYPE svg PUBLIC "-//W3C//DTD SVG 1.1//EN" "http://www.w3.org/Graphics/SVG/1.1/DTD/svg11.dtd">
<svg version="1.1" id="Layer_1" xmlns="http://www.w3.org/2000/svg" xmlns:xlink="http://www.w3.org/1999/xlink" x="0px" y="0px"
	 viewBox="0 0 612 792" enable-background="new 0 0 612 792" xml:space="preserve">
<g>
	<path d="M-707.5-970c9.8,0,12.2,4.9,12.2,14.7v58.8c0,12.2-7.3,19.6-22,19.6h-39.2c-14.7,0-26.9,7.3-34.3,22
		c-2.4,4.9-4.9,9.8-4.9,17.1c0,12.2,7.3,31.8,22,63.6l68.5,149.3c7.3,17.1,12.2,34.3,12.2,49c0,19.6-4.9,36.7-17.1,51.4
		c-9.8,14.7-26.9,26.9-49,31.8c-7.3,2.4-17.1,4.9-24.5,7.3c-7.3,2.4-17.1,4.9-24.5,7.3c-7.3,2.4-9.8,4.9-12.2,4.9
		c-7.3,4.9-9.8,9.8-14.7,14.7c-7.3,12.2-14.7,17.1-22,17.1c-2.4,0-7.3-2.4-9.8-4.9c-2.4-2.4-4.9-7.3-4.9-12.2V-522
		c0-4.9,2.4-7.3,4.9-12.2c4.9-2.4,7.3-4.9,12.2-4.9h31.8c26.9,0,41.6-4.9,49-17.1c2.4-4.9,4.9-9.8,4.9-14.7
		c0-9.8-7.3-29.4-19.6-58.8l-63.6-137.1c-9.8-19.6-12.2-36.7-12.2-53.9c0-44.1,22-75.9,66.1-97.9c7.3-2.4,14.7-4.9,22-7.3
		c7.3-2.4,17.1-4.9,26.9-9.8c7.3-2.4,12.2-7.3,17.1-14.7c2.4-2.4,2.4-4.9,7.3-7.3c2.4-2.4,4.9-4.9,7.3-9.8
		C-712.4-967.5-709.9-970-707.5-970z"/>
	<path d="M-401.5-820.7c9.8,0,22,2.4,31.8,7.3c14.7,7.3,22,19.6,24.5,36.7l34.3,230.1c2.4,12.2,7.3,19.6,17.1,19.6
		c12.2,0,17.1,4.9,17.1,17.1c0,9.8-4.9,17.1-17.1,17.1h-88.1c-12.2,0-17.1-4.9-17.1-17.1c0-12.2,4.9-17.1,17.1-17.1
		c12.2-2.4,17.1-9.8,14.7-22l-29.4-205.6c-2.4-14.7-9.8-22-26.9-22c-7.3,0-14.7,2.4-19.6,7.3c-4.9,4.9-7.3,12.2-7.3,19.6V-544
		c0,12.2,4.9,17.1,17.1,17.1s17.1,4.9,17.1,17.1c0,9.8-4.9,17.1-17.1,17.1h-83.2c-9.8,0-17.1-4.9-17.1-17.1
		c0-9.8,4.9-14.7,17.1-17.1c7.3-2.4,12.2-7.3,12.2-17.1v-198.3c0-9.8-2.4-19.6-9.8-24.5c-7.3-7.3-14.7-9.8-24.5-9.8
		s-17.1,2.4-24.5,9.8c-7.3,7.3-9.8,14.7-9.8,24.5V-544c0,12.2,4.9,17.1,12.2,17.1c12.2,0,17.1,4.9,17.1,17.1
		c0,9.8-4.9,17.1-17.1,17.1h-80.8c-12.2,0-17.1-4.9-17.1-17.1c0-9.8,4.9-14.7,17.1-17.1c9.8,0,14.7-7.3,14.7-17.1v-193.4l-4.9,4.9
		c-4.9,4.9-7.3,7.3-12.2,7.3c-2.4,0-4.9,0-9.8-2.4c-7.3-4.9-7.3-12.2-2.4-19.6l56.3-71c4.9-4.9,7.3-4.9,12.2-4.9
		c9.8,0,14.7,4.9,14.7,14.7v7.3c19.6-12.2,36.7-19.6,51.4-19.6c19.6,0,39.2,9.8,53.9,31.8C-443.1-808.4-421.1-820.7-401.5-820.7z"/>
	<path d="M53.9-771.7c34.3,34.3,51.4,73.4,51.4,122.4c0,46.5-17.1,88.1-51.4,120c-34.3,34.3-73.4,49-122.4,49s-88.1-17.1-122.4-49
		c-34.3-34.3-49-73.4-49-120s17.1-88.1,51.4-122.4s73.4-51.4,122.4-51.4S19.6-806,53.9-771.7z M-166.5-607.7
		c7.3,29.4,22,53.9,41.6,68.5c17.1,12.2,39.2,19.6,61.2,19.6c12.2,0,24.5-2.4,34.3-4.9c36.7-14.7,58.8-41.6,66.1-80.8
		c0-4.9,2.4-7.3,2.4-12.2c0-4.9,0-9.8,0-14.7c0-51.4-12.2-90.6-39.2-117.5c-19.6-19.6-44.1-26.9-73.4-26.9c-7.3,0-14.7,0-24.5,2.4
		c-46.5,14.7-73.4,46.5-75.9,95.5C-176.3-654.2-173.8-632.2-166.5-607.7z"/>
	<path d="M247.2-524.4c12.2,0,17.1,4.9,17.1,17.1c0,9.8-4.9,17.1-17.1,17.1h-88.1c-12.2,0-17.1-4.9-17.1-17.1
		c0-12.2,4.9-17.1,17.1-17.1c12.2,0,17.1-4.9,17.1-17.1V-735l-4.9,4.9c-7.3,7.3-12.2,7.3-19.6,2.4c-4.9-2.4-7.3-7.3-7.3-12.2
		c0-2.4,0-4.9,2.4-7.3l56.3-71c2.4-4.9,7.3-4.9,12.2-4.9c9.8,0,14.7,4.9,14.7,14.7v266.8C230.1-529.3,237.5-524.4,247.2-524.4z
		 M227.7-930.8c7.3,7.3,12.2,17.1,12.2,29.4c0,9.8-4.9,19.6-12.2,26.9s-17.1,12.2-26.9,12.2c-12.2,0-22-4.9-29.4-12.2
		c-7.3-7.3-12.2-17.1-12.2-26.9c0-12.2,4.9-22,12.2-29.4c7.3-7.3,17.1-12.2,29.4-12.2C210.5-943.1,220.3-938.2,227.7-930.8z"/>
	<path d="M301.1-730.1c0-29.4,14.7-51.4,44.1-61.2c26.9-9.8,44.1-22,51.4-31.8c2.4-7.3,7.3-9.8,9.8-12.2c2.4,0,4.9,0,4.9,0
		c7.3,0,9.8,4.9,9.8,12.2v41.6c0,9.8-4.9,14.7-14.7,14.7h-24.5c-19.6,0-29.4,9.8-29.4,26.9c0,4.9,2.4,12.2,4.9,22l61.2,161.6
		c4.9,9.8,4.9,19.6,4.9,29.4c0,29.4-14.7,51.4-44.1,61.2c-31.8,12.2-51.4,22-56.3,31.8c-4.9,7.3-7.3,12.2-9.8,12.2s-4.9,2.4-4.9,2.4
		c-7.3,0-9.8-4.9-9.8-12.2V-473c0-9.8,4.9-12.2,14.7-12.2h29.4c19.6,0,29.4-9.8,29.4-26.9c0-4.9-2.4-12.2-4.9-19.6L306-693.4
		C301.1-710.5,301.1-720.3,301.1-730.1z"/>
	<path d="M572.8-524.4c12.2,0,17.1,4.9,17.1,17.1c0,9.8-4.9,17.1-17.1,17.1h-93c-12.2,0-17.1-4.9-17.1-17.1
		c0-12.2,4.9-17.1,17.1-17.1c12.2,0,17.1-4.9,17.1-17.1v-320.7l-4.9,4.9c-2.4,4.9-7.3,7.3-12.2,7.3c-2.4,0-7.3,0-9.8-2.4
		c-7.3-7.3-9.8-12.2-2.4-22l58.8-75.9c2.4-4.9,7.3-4.9,12.2-4.9c12.2,0,17.1,4.9,17.1,17.1v139.5c19.6-12.2,36.7-19.6,51.4-19.6
		c9.8,0,19.6,2.4,29.4,7.3c12.2,7.3,22,19.6,24.5,36.7L695.2-544c2.4,12.2,7.3,19.6,19.6,19.6c9.8,0,17.1,4.9,17.1,17.1
		c0,9.8-4.9,17.1-17.1,17.1h-88.1c-12.2,0-17.1-4.9-17.1-17.1c0-12.2,4.9-17.1,17.1-17.1c12.2-2.4,17.1-9.8,14.7-22L612-752.1
		c-2.4-14.7-9.8-22-26.9-22c-7.3,0-14.7,2.4-19.6,7.3c-4.9,4.9-7.3,12.2-7.3,19.6v205.6C555.7-529.3,560.6-524.4,572.8-524.4z"/>
	<path d="M952.3-524.4c17.1,0,44.1,0,75.9-4.9c9.8,0,19.6-4.9,34.3-9.8c14.7-4.9,22-7.3,22-7.3c7.3,0,12.2,4.9,12.2,12.2v31.8
		c0,7.3-2.4,12.2-9.8,12.2c0,0-4.9,0-12.2,0s-17.1,0-29.4,2.4l-73.4,4.9c-12.2,0-24.5,2.4-34.3,2.4c-63.6,0-110.2-22-142-66.1
		c-22-29.4-31.8-63.6-31.8-102.8c0-22,2.4-41.6,9.8-61.2c12.2-29.4,29.4-53.9,53.9-73.4c22-17.1,46.5-29.4,73.4-34.3
		c7.3-2.4,17.1-2.4,26.9-2.4c29.4,0,56.3,7.3,80.8,22c29.4,17.1,53.9,44.1,68.5,80.8c4.9,12.2,2.4,22-4.9,29.4
		c-4.9,4.9-14.7,7.3-29.4,7.3H827.4c0,4.9-2.4,9.8-2.4,14.7c0,4.9,0,9.8,0,14.7c0,26.9,7.3,49,19.6,68.5
		C871.5-548.9,905.8-529.3,952.3-524.4z M873.9-761.9c-17.1,9.8-26.9,22-31.8,34.3h164c-7.3-14.7-19.6-26.9-39.2-36.7
		c-14.7-7.3-29.4-12.2-44.1-12.2C908.2-776.6,891.1-771.7,873.9-761.9z"/>
	<path d="M1138.3-507.3c0-12.2,4.9-17.1,17.1-17.1c12.2,0,17.1-4.9,17.1-17.1v-320.7l-4.9,4.9c-2.4,4.9-7.3,7.3-12.2,7.3
		c-2.4,0-7.3,0-9.8-2.4c-7.3-7.3-9.8-12.2-2.4-22l58.8-75.9c2.4-4.9,7.3-4.9,12.2-4.9c12.2,0,17.1,4.9,17.1,17.1v399
		c0,12.2,4.9,17.1,17.1,17.1s17.1,4.9,17.1,17.1c0,9.8-4.9,17.1-17.1,17.1h-93C1143.2-492.6,1138.3-497.5,1138.3-507.3z"/>
	<path d="M1488.4-524.4c17.1,0,44.1,0,75.9-4.9c9.8,0,19.6-4.9,34.3-9.8c14.7-4.9,22-7.3,22-7.3c7.3,0,12.2,4.9,12.2,12.2v31.8
		c0,7.3-2.4,12.2-9.8,12.2c0,0-4.9,0-12.2,0c-7.3,0-17.1,0-29.4,2.4l-73.4,4.9c-12.2,0-24.5,2.4-34.3,2.4c-63.6,0-110.2-22-142-66.1
		c-22-29.4-31.8-63.6-31.8-102.8c0-22,2.4-41.6,9.8-61.2c12.2-29.4,29.4-53.9,53.9-73.4c22-17.1,46.5-29.4,73.4-34.3
		c7.3-2.4,17.1-2.4,26.9-2.4c29.4,0,56.3,7.3,80.8,22c29.4,17.1,53.9,44.1,68.5,80.8c4.9,12.2,2.4,22-4.9,29.4
		c-4.9,4.9-14.7,7.3-29.4,7.3h-215.4c0,4.9-2.4,9.8-2.4,14.7c0,4.9,0,9.8,0,14.7c0,26.9,7.3,49,19.6,68.5
		C1405.2-548.9,1441.9-529.3,1488.4-524.4z M1410-761.9c-17.1,9.8-26.9,22-31.8,34.3h164c-7.3-14.7-19.6-26.9-39.2-36.7
		c-14.7-7.3-29.4-12.2-44.1-12.2C1441.9-776.6,1427.2-771.7,1410-761.9z"/>
</g>
<g>
	<path fill="#666666" d="M51.4,420.5c0-9.8,4.9-12.2,14.7-12.2h58.8c12.2,0,19.6,7.3,19.6,22v39.2c0,14.7,7.3,26.9,22,34.3
		c4.9,0,12.2,2.4,17.1,2.4c12.2,0,31.8-7.3,63.6-22l149.3-68.5c17.1-7.3,34.3-12.2,49-12.2c19.6,0,36.7,4.9,51.4,17.1
		c14.7,9.8,26.9,26.9,31.8,49c2.4,7.3,4.9,17.1,7.3,24.5c2.4,7.3,4.9,17.1,7.3,24.5c2.4,7.3,4.9,9.8,4.9,12.2
		c4.9,7.3,9.8,9.8,14.7,14.7c12.2,7.3,17.1,14.7,17.1,22c0,2.4-2.4,7.3-4.9,9.8c-2.4,2.4-7.3,4.9-12.2,4.9h-66.1
		c-4.9,0-7.3-2.4-12.2-4.9c-2.4-4.9-4.9-7.3-4.9-12.2v-31.8c0-26.9-4.9-41.6-17.1-49c-4.9-2.4-9.8-4.9-14.7-4.9
		c-9.8,0-29.4,7.3-58.8,19.6l-137.1,63.6c-19.6,9.8-36.7,12.2-53.9,12.2c-44.1,0-75.9-22-97.9-66.1c-2.4-7.3-4.9-14.7-7.3-22
		c-2.4-7.3-4.9-17.1-9.8-26.9c-2.4-7.3-7.3-12.2-14.7-17.1c-2.4-2.4-4.9-2.4-7.3-7.3c-2.4-2.4-4.9-4.9-9.8-7.3
		C53.9,422.9,51.4,422.9,51.4,420.5z"/>
</g>
<g>
	<path fill="#666666" d="M186,202.6c7.3-7.3,17.1-12.2,26.9-12.2c9.8,0,19.6,4.9,26.9,12.2c7.3,7.3,9.8,17.1,9.8,26.9
		c0,9.8-2.4,19.6-9.8,26.9c-7.3,7.3-17.1,12.2-26.9,12.2c-9.8,0-19.6-4.9-26.9-12.2c-7.3-7.3-9.8-17.1-9.8-26.9S178.7,210,186,202.6
		z M377,202.6c7.3-7.3,17.1-12.2,26.9-12.2s19.6,4.9,26.9,12.2c4.9,7.3,9.8,17.1,9.8,26.9s-2.4,19.6-9.8,26.9
		c-7.3,7.3-14.7,12.2-26.9,12.2c-12.2,0-19.6-4.9-26.9-12.2c-7.3-7.3-9.8-17.1-9.8-26.9C364.8,219.7,369.6,210,377,202.6z"/>
</g>
<g>
	<path d="M-962.1-832.9c7.3,7.3,12.2,17.1,12.2,26.9c0,9.8-4.9,19.6-12.2,26.9c-7.3,7.3-17.1,9.8-26.9,9.8s-19.6-2.4-26.9-9.8
		c-7.3-7.3-12.2-17.1-12.2-26.9c0-9.8,4.9-19.6,12.2-26.9c7.3-7.3,17.1-9.8,26.9-9.8C-979.2-842.7-969.4-840.2-962.1-832.9z
		 M-962.1-642c7.3,7.3,12.2,17.1,12.2,26.9s-4.9,19.6-12.2,26.9c-7.3,7.3-17.1,9.8-26.9,9.8s-19.6-2.4-26.9-9.8
		c-7.3-7.3-12.2-14.7-12.2-26.9s4.9-19.6,12.2-26.9c7.3-7.3,17.1-9.8,26.9-9.8C-979.2-651.7-969.4-649.3-962.1-642z"/>
</g>
</svg>
