<?xml version="1.0" encoding="utf-8"?>
<!-- Generator: Adobe Illustrator 18.0.0, SVG Export Plug-In . SVG Version: 6.00 Build 0)  -->
<!DOCTYPE svg PUBLIC "-//W3C//DTD SVG 1.1//EN" "http://www.w3.org/Graphics/SVG/1.1/DTD/svg11.dtd">
<svg version="1.1" id="Layer_1" xmlns:sketch="http://www.bohemiancoding.com/sketch/ns"
	 xmlns="http://www.w3.org/2000/svg" xmlns:xlink="http://www.w3.org/1999/xlink" x="0px" y="0px" viewBox="0 0 16 16"
	 enable-background="new 0 0 16 16" xml:space="preserve">
<title></title>
<g id="Icons_with_numbers">
	<g id="Group" transform="translate(-768.000000, -432.000000)">
		<g>
			<g>
				<path fill="#FFFFFF" d="M774.6,443.3c0,0.2,0.2,0.4,0.4,0.4h2.1c0.2,0,0.4-0.2,0.4-0.4v-4.2c0-0.2,0.2-0.4,0.4-0.4h0.6
					c0.2,0,0.3-0.1,0.2-0.3l-2.4-2.9c-0.1-0.2-0.4-0.2-0.5,0l-2.4,2.9c-0.1,0.2-0.1,0.3,0.2,0.3h0.6c0.2,0,0.4,0.2,0.4,0.4V443.3z"
					/>
			</g>
			<g>
				<path fill="#FFFFFF" d="M780,442.3c-0.2,0-0.4,0.2-0.4,0.4v1.3c0,0.2-0.2,0.4-0.4,0.4h-6.3c-0.2,0-0.4-0.2-0.4-0.4v-1.3
					c0-0.2-0.2-0.4-0.4-0.4h-0.6c-0.2,0-0.4,0.2-0.4,0.4v1.3c0,0.2,0,0.6,0,0.8v0.6c0,0.2,0.2,0.4,0.4,0.4h9.2
					c0.2,0,0.4-0.2,0.4-0.4v-0.6c0-0.2,0-0.6,0-0.8v-1.3c0-0.2-0.2-0.4-0.4-0.4H780z"/>
			</g>
		</g>
	</g>
</g>
</svg>
